<svg id="Layer_1" enable-background="new 0 0 512 512" height="512" viewBox="0 0 512 512" width="512" xmlns="http://www.w3.org/2000/svg"><g><g><path clip-rule="evenodd" d="m108.994 512h338.471c8.576 0 15.601-7.009 15.601-15.565v-480.87c0-8.557-7.024-15.565-15.6-15.565h-338.472v.701l-22.04 255.285 22.04 255.314z" fill="#b3e59f" fill-rule="evenodd"/></g><g><path clip-rule="evenodd" d="m433.153 15.565v480.871c0 8.556-7.025 15.565-15.63 15.565h29.943c8.576 0 15.601-7.009 15.601-15.565v-480.871c-.001-8.557-7.025-15.565-15.601-15.565h-29.943c8.605 0 15.63 7.008 15.63 15.565z" fill="#95d6a4" fill-rule="evenodd"/></g><g><path clip-rule="evenodd" d="m192.822 373.757h171.021c6.029 0 10.947-4.906 10.947-10.922v-17.463c0-5.986-4.917-10.892-10.947-10.892h-171.021c-6.029 0-10.947 4.906-10.947 10.892v17.463c0 6.016 4.917 10.922 10.947 10.922z" fill="#ffe07d" fill-rule="evenodd"/></g><g><path clip-rule="evenodd" d="m192.646 207.306v32.765l85.701 18.047 85.672-18.047v-32.765c62.783-25.493 44.929-111.815-23.562-111.815h-10.742c-7.756-17.58-29.562-26.165-51.368-26.486-21.835.321-43.641 8.907-51.397 26.486h-10.742c-68.49 0-86.344 86.321-23.562 111.815z" fill="#efecff" fill-rule="evenodd"/></g><g><path clip-rule="evenodd" d="m338.291 219.629v20.441h4.976 20.752v-32.765c62.783-25.493 44.929-111.815-23.562-111.815h-10.742c-7.756-17.58-29.562-26.165-51.368-26.486-15.396.234-30.762 4.556-41.211 13.258 5.269-1.285 10.83-1.957 16.391-2.044 18.264.263 36.499 6.892 44.753 20.441 3.395 5.519 5.239 13.579 12.527 13.579 60.149 0 83.125 63.368 32.84 89.125-5.912 3.008-5.356 9.579-5.356 16.266z" fill="#d5cef7" fill-rule="evenodd"/></g><g><path clip-rule="evenodd" d="m334.427 373.757h29.416c6.029 0 10.947-4.906 10.947-10.922v-17.463c0-5.986-4.917-10.892-10.947-10.892h-29.416c6.029 0 10.947 4.906 10.947 10.892v17.463c0 6.016-4.917 10.922-10.947 10.922z" fill="#ffc77d" fill-rule="evenodd"/></g><g><path clip-rule="evenodd" d="m48.934 486.185c0 14.192 11.62 25.815 25.845 25.815h34.216v-.701-511.299h-34.217c-14.224 0-25.844 11.593-25.844 25.785z" fill="#ffe07d" fill-rule="evenodd"/></g><g><path clip-rule="evenodd" d="m74.778 0v511.299.701h34.216v-.701-90.789-164.525-164.524-90.76-.701z" fill="#ffc77d" fill-rule="evenodd"/></g><g><path d="m374.79 431.42h-192.915c-4.268 0-7.726-3.459-7.726-7.726 0-4.268 3.459-7.726 7.726-7.726h192.915c4.268 0 7.726 3.459 7.726 7.726s-3.459 7.726-7.726 7.726z" fill="#efecff"/></g><g><path d="m124.976 99.187h-31.934c-4.268 0-7.726-3.459-7.726-7.726 0-4.268 3.459-7.726 7.726-7.726h31.934c4.268 0 7.726 3.459 7.726 7.726s-3.459 7.726-7.726 7.726z" fill="#8080a4"/></g><g><path d="m124.976 263.711h-31.934c-4.268 0-7.726-3.459-7.726-7.726 0-4.268 3.459-7.726 7.726-7.726h31.934c4.268 0 7.726 3.459 7.726 7.726 0 4.268-3.459 7.726-7.726 7.726z" fill="#8080a4"/></g><g><path d="m124.976 428.236h-31.934c-4.268 0-7.726-3.459-7.726-7.726s3.459-7.726 7.726-7.726h31.934c4.268 0 7.726 3.459 7.726 7.726s-3.459 7.726-7.726 7.726z" fill="#8080a4"/></g><g><path d="m239.126 247.797c-4.268 0-7.726-3.459-7.726-7.726v-54.287c0-4.268 3.459-7.726 7.726-7.726 4.268 0 7.726 3.459 7.726 7.726v54.287c0 4.267-3.459 7.726-7.726 7.726z" fill="#d5cef7"/></g><g><path d="m278.347 247.797c-4.268 0-7.726-3.459-7.726-7.726v-54.287c0-4.268 3.459-7.726 7.726-7.726s7.726 3.459 7.726 7.726v54.287c0 4.267-3.458 7.726-7.726 7.726z" fill="#d5cef7"/></g><g><path d="m317.539 247.797c-4.268 0-7.726-3.459-7.726-7.726v-54.287c0-4.268 3.459-7.726 7.726-7.726s7.726 3.459 7.726 7.726v54.287c.001 4.267-3.458 7.726-7.726 7.726z" fill="#d5cef7"/></g><g><path clip-rule="evenodd" d="m278.347 276.164h85.73c5.883-.029 10.713-4.848 10.713-10.746v-14.601c0-5.899-4.859-10.746-10.771-10.746h-46.48-39.192-39.221-46.48c-5.912 0-10.771 4.848-10.771 10.746v14.601c0 5.87 4.829 10.746 10.713 10.746z" fill="#a9aac9" fill-rule="evenodd"/></g><g><path clip-rule="evenodd" d="m364.019 276.164h.029zm-15.572 0h15.571.029.029.029c2.517-.029 4.829-.905 6.673-2.395 0 0 0 0 .029-.029 2.4-1.957 3.981-4.964 3.981-8.323v-14.601c0-5.899-4.859-10.746-10.771-10.746h-27.718c5.912.058 10.713 4.877 10.713 10.746v14.601c0 5.87-4.829 10.688-10.625 10.746h12.06z" fill="#8080a4" fill-rule="evenodd"/></g></g></svg>